inDegrees=no
num_controls=7
num_derivatives=13
num_iterations=154
num_multipliers=7
num_parameters=0
num_slacks=7
num_states=26
objective=5.759706
objective_accelerations=0.468278
objective_balance=0.058997
objective_effort=0.421282
objective_height=4.763727
objective_ligament=0.047422
solver_duration=1628.265266
status=Solve_Succeeded
success=true
DataType=double
version=3
OpenSimVersion=4.4-2022-07-23-0e9fedc
endheader
time	/jointset/ground_pelvis/pelvis_tilt/value	/jointset/ground_pelvis/pelvis_tx/value	/jointset/ground_pelvis/pelvis_ty/value	/jointset/hip_l/hip_flexion_l/value	/jointset/hip_l/hip_adduction_l/value	/jointset/hip_l/hip_rotation_l/value	/jointset/back/lumbar_extension/value	/jointset/patellofemoral_l/patellar_flexion_l/value	/jointset/knee_l/knee_flexion_l/value	/jointset/knee_l/knee_adduction_l/value	/jointset/knee_l/knee_rotation_l/value	/jointset/ankle_l/ankle_angle_l/value	/jointset/subtalar_l/subtalar_angle_l/value	/jointset/ground_pelvis/pelvis_tilt/speed	/jointset/ground_pelvis/pelvis_tx/speed	/jointset/ground_pelvis/pelvis_ty/speed	/jointset/hip_l/hip_flexion_l/speed	/jointset/hip_l/hip_adduction_l/speed	/jointset/hip_l/hip_rotation_l/speed	/jointset/back/lumbar_extension/speed	/jointset/patellofemoral_l/patellar_flexion_l/speed	/jointset/knee_l/knee_flexion_l/speed	/jointset/knee_l/knee_adduction_l/speed	/jointset/knee_l/knee_rotation_l/speed	/jointset/ankle_l/ankle_angle_l/speed	/jointset/subtalar_l/subtalar_angle_l/speed	/forceset/tau_hip_flexion_l	/forceset/tau_hip_adduction_l	/forceset/tau_hip_rotation_l	/forceset/tau_knee_flexion_l	/forceset/tau_ankle_angle_l	/forceset/tau_subtalar_angle_l	/forceset/tau_lumbar_extension	lambda_cid13_p0	lambda_cid13_p1	lambda_cid13_p2	lambda_cid13_p3	lambda_cid13_p4	lambda_cid13_p5	lambda_cid14_p0	/jointset/ground_pelvis/pelvis_tilt/accel	/jointset/ground_pelvis/pelvis_tx/accel	/jointset/ground_pelvis/pelvis_ty/accel	/jointset/hip_l/hip_flexion_l/accel	/jointset/hip_l/hip_adduction_l/accel	/jointset/hip_l/hip_rotation_l/accel	/jointset/back/lumbar_extension/accel	/jointset/patellofemoral_l/patellar_flexion_l/accel	/jointset/knee_l/knee_flexion_l/accel	/jointset/knee_l/knee_adduction_l/accel	/jointset/knee_l/knee_rotation_l/accel	/jointset/ankle_l/ankle_angle_l/accel	/jointset/subtalar_l/subtalar_angle_l/accel	gamma_cid13_p0	gamma_cid13_p1	gamma_cid13_p2	gamma_cid13_p3	gamma_cid13_p4	gamma_cid13_p5	gamma_cid14_p0
1	-0.002701280604913544	-0.003961672267321265	0.7268520939099632	1.063178625249327	-0.3402593399193864	0.0570295272353619	-0.9599308712450467	1.347019867041102	1.347019867041053	-0.08236998426411826	-0.1745294754070235	0.383066717365455	0.09728697365603621	0.1157956350636064	0.02951545710417287	0.06316295396928391	-0.3057205662952404	-0.005813408922884342	-0.06681406405507208	-0.00190872371427381	-0.1596524391314264	-0.1596524391314007	-0.0008568292045291679	-3.780508163043063e-05	0.02082921472192125	0.003239160120511425	-0.3001022635119022	0.04837867341880514	-0.0001560040850388478	-0.3769956057911666	-0.05806664924765471	0.02793586825803001	0.3881071081779875	-68.49264831897351	0.5922658150119212	-1.385132906026761	18.80571193481969	-788.1049264891394	-68.33730583163732	-0.04157445449903323	0.4580519930699758	-0.09118142460777517	1.3073334726842	-3.877628828867828	0.01355925418748295	-1.583140555855591	0.3531348056718051	-4.77325666780678	-4.773256667806834	-0.2680097204742046	-0.0149600288936027	-1.704759475081851	-0.8310919091724414	-9.85399476244249e-09	2.939479876657175e-08	5.561999648893205e-08	1.07669253526381e-08	-2.630181757291259e-08	1.068984935142396e-07	-1.397381306353116e-08
1.01	-0.001520959090107995	-0.003670940548850839	0.7275488933154889	1.059928425890207	-0.3403161610855083	0.0562814389205379	-0.9599310404512295	1.345185111890366	1.345185111890332	-0.08239013571203717	-0.1745297206484089	0.3831900810001408	0.09727895429114068	0.1202508939165803	0.02864462092918155	0.07618827023693159	-0.3443007250902579	-0.005544669956586519	-0.08279866014686234	0.001954733597142163	-0.2072951118896404	-0.207295111889629	-0.003172362889899913	-1.228401420199275e-05	0.003847375328306379	-0.004831152767167802	-0.2997186730873005	0.04855554443907112	-0.000229868745799495	-0.376632316941525	-0.05826624422815815	0.0280679131417634	0.3882378010419155	-68.53724765490506	0.5217952326128836	-1.349987770930163	18.57884068235337	-788.1192129001245	-68.4001753937777	-0.04159461102820807	0.4365953731533199	-0.08297087354155119	1.298825512719133	-3.845424618914369	0.0344471897937298	-1.605393482285169	0.4149289019730208	-4.759246847394338	-4.759246847396429	-0.2131691025969784	0.01117212930730493	-1.694317330740855	-0.7932318100507609	-1.683138997539051e-08	2.001974532587705e-08	8.366567663590241e-08	1.837081695991442e-08	-3.321182961674166e-08	1.11044498394132e-07	-1.926473393747333e-08
1.02	-0.0002966184784284173	-0.003388504424049719	0.7283756848454702	1.056292981900252	-0.3403701116675925	0.0553736497755051	-0.959890179544923	1.342874035158534	1.342874035158527	-0.08243341127879511	-0.1745297378882384	0.3831437420090435	0.09719058563107019	0.1245994544392208	0.02785633837031173	0.08916137886087759	-0.3827694924491395	-0.005239292112561483	-0.09875423009644435	0.006297299232400001	-0.2549167553504907	-0.2549167553504916	-0.005481652976421286	7.795243078345114e-06	-0.01311131043489407	-0.01283069891425548	-0.2993350826629832	0.04873241545928171	-0.0003037334061588626	-0.3762690280919282	-0.05846583920864789	0.02819995802541165	0.3883684939056195	-68.59530498985734	0.4551167568364014	-1.317087595482833	18.41346234428345	-788.3116679140268	-68.44441859447377	-0.04161426042562855	0.436712327003246	-0.07467070138348098	1.296891943943878	-3.855350541640655	0.02088702973298222	-1.577335327413877	0.4489564704424983	-4.769050808334075	-4.769050808333738	-0.266761000704309	-0.01604839092305416	-1.700128748998975	-0.8169385610540334	-2.230196632046442e-08	6.144216668018087e-09	1.120817032965975e-07	2.167605443455754e-08	-3.920761806990364e-08	1.079372960939063e-07	-2.448653708033476e-08
1.03	0.0009704026124831955	-0.003113385140076357	0.7293318830399212	1.052273610586393	-0.3404208244904181	0.05430656813959159	-0.9598024134098657	1.340086981779031	1.340086981779018	-0.08249980342714494	-0.1745295487794636	0.3829281527746085	0.09702271951312585	0.1287599279465267	0.02719680792162822	0.1020633804213325	-0.4210667767640014	-0.004898273105113458	-0.1146512696717483	0.01144458574552544	-0.3024776766332972	-0.3024776766332979	-0.007797794393927077	2.814828932913499e-05	-0.02998080220175725	-0.02071829315774109	-0.2995681567920707	0.0489734513554896	-0.0004119592117982357	-0.3754367430693634	-0.05872001709631136	0.02841686558994937	0.3892743488789562	-68.66281841835068	0.3348304808592759	-1.254614458594899	17.97308896924429	-788.6761519145692	-68.50761948320095	-0.04163846221566867	0.3989879019534557	-0.05719578471156671	1.28461324586141	-3.81122118281349	0.04144484882971161	-1.594288944795216	0.5759134354736433	-4.747170227609012	-4.74717022760919	-0.2142082520103021	0.01082560862614106	-1.676501578582761	-0.7710502600787873	-2.775716696280491e-08	-7.777235206342576e-09	1.405015090033511e-07	2.493742809152071e-08	-4.519407771091595e-08	1.047560814755159e-07	-2.970763494022598e-08
1.04	0.00227768304633057	-0.00284398147421005	0.7304166530467255	1.047872405668022	-0.3404679800206725	0.05308083597350687	-0.9596575146709093	1.336824807698829	1.336824807698849	-0.08258939049760321	-0.1745292064490389	0.3825446401848941	0.09677670137192906	0.1326513230281694	0.02671321474890031	0.1148757413320371	-0.4591362133350988	-0.004527833594508101	-0.1304843361353207	0.01772382000764583	-0.349940895490325	-0.3499408954903271	-0.01012063740089815	3.843958465990128e-05	-0.04669598149073668	-0.02846110356454949	-0.2998012309215036	0.04921448725170161	-0.000520185017583954	-0.3746044580468614	-0.05897419498393491	0.0286337731545181	0.390180203852012	-68.74396056875169	0.2184469326394159	-1.194496130411753	17.5922798565586	-789.2218197290498	-68.55271419183319	-0.04166136159597007	0.3828966418705965	-0.03948324619234098	1.27896381399382	-3.809780992887752	0.02677113036440011	-1.564540705067639	0.6753460202411683	-4.749510323178358	-4.749510323178336	-0.2681013185973847	-0.01806074110715201	-1.669266253422208	-0.7879817937186501	-3.180337651968961e-08	-2.532636897454186e-08	1.662209475763259e-07	2.494128726807242e-08	-5.063341746422599e-08	9.291810502367887e-08	-3.411195525818793e-08
1.05	0.003622597346200636	-0.002578569273906628	0.7316290340491517	1.043091749240834	-0.3405112668461028	0.05169721627611529	-0.9594445020940199	1.333088582791309	1.333088582791351	-0.08270230666264351	-0.1745288028627469	0.381994677167547	0.09645399351011583	0.1362917527050611	0.02639506587031652	0.1275789206631655	-0.4969450332044554	-0.004122056266306949	-0.1462238485077905	0.02503568434647693	-0.3972783957703342	-0.3972783957703361	-0.01246233183112542	4.092140541431397e-05	-0.06327764547641208	-0.03605344567028219	-0.2995368312776802	0.04939461020937248	-0.0006574350843591434	-0.3735206419719199	-0.05899337491255963	0.02889304211063284	0.3905511622255815	-68.70910001082002	0.05225983343757021	-1.113764392828032	17.18117598716126	-789.1554961723813	-68.64354470827881	-0.04169480809355145	0.3486465317858614	-0.0240996571664895	1.262752953330912	-3.758930031565852	0.04858102785289387	-1.576326734343801	0.782654986418624	-4.722008601590977	-4.722008601590863	-0.2171847499707102	0.009237678402648688	-1.649773824609031	-0.7408225319094818	-3.580555510515382e-08	-4.298886780192359e-08	1.918559996763702e-07	2.484334911711129e-08	-5.605565972104536e-08	8.08096047645466e-08	-3.849075127796461e-08
1.06	0.005002722023070353	-0.002315562352084018	0.732967798437017	1.037934505105411	-0.340550275899498	0.05015666740880383	-0.9591536612045928	1.328879755136754	1.328879755136837	-0.08283863602094704	-0.1745284074512522	0.3812794660396494	0.09605616980466246	0.1396933984294353	0.02623215905273784	0.1401524184203546	-0.5344537549780944	-0.003672279185903125	-0.1618701701205484	0.03328948251384572	-0.4444614448975092	-0.4444614448975095	-0.01480327605076455	3.680461560222852e-05	-0.07974560360084662	-0.0434842722923767	-0.2992724316339292	0.04957473316703197	-0.0007946851515644063	-0.372436825897006	-0.05901255484118224	0.02915231106674102	0.3909221205990986	-68.68795177376067	-0.1098853578302126	-1.03555191105284	16.82731656429492	-789.2716374841721	-68.7173296171061	-0.04172619860011418	0.3351398513670226	-0.00843483399129394	1.253027499205968	-3.749761373744284	0.03557108080490902	-1.545902553125297	0.8637327859484624	-4.718620092611491	-4.718620092611239	-0.2679512764797743	-0.01938046322050103	-1.646525081174011	-0.7556786969910398	-3.999328548375396e-08	-6.177455705576586e-08	2.124084852330128e-07	2.501783722752009e-08	-6.111675060355683e-08	6.689509896481416e-08	-4.226244835039469e-08
1.07	0.00641574547238409	-0.002053398218548083	0.7344316016056296	1.032403675391193	-0.3405845502468484	0.04846025908061638	-0.9587756936289932	1.324199952115761	1.324199952116149	-0.08299845369894694	-0.1745280528698296	0.3804001584047681	0.09558489872120594	0.1428779694734106	0.02622761715322142	0.1525817446194452	-0.5716609109548008	-0.003172589070854959	-0.1773919383139179	0.0424507225631865	-0.4914652262119549	-0.4914652262119491	-0.01715782666789327	3.526620889204683e-05	-0.0960951520020769	-0.05073597425373321	-0.2987588968141192	0.04974189702738193	-0.0009588681804008099	-0.3710577332805752	-0.05885688974936395	0.02945127841759534	0.391036756242125	-68.57863686267531	-0.3150691903200927	-0.9386434926028836	16.38824694008331	-788.9564123853062	-68.81663816229981	-0.04176538885053846	0.3051151979180134	0.007583600989472269	1.233901274897016	-3.698504999690023	0.05864196544573314	-1.552421615761904	0.9643231074618904	-4.686157934317841	-4.686157934317043	-0.2188685661877479	0.009677141267632897	-1.626059690168887	-0.7048347627556569	-4.419088563858472e-08	-8.06199904812284e-08	2.326906215054318e-07	2.52068160965124e-08	-6.615863130658384e-08	5.28845290405817e-08	-4.600185292562548e-08
